lift_the_feet coordinate motion generated from LLM joint_angles
version=1
nRows=21
nColumns=36
inDegrees=yes
endheader
time	pelvis_tilt	pelvis_list	pelvis_rotation	pelvis_tx	pelvis_ty	pelvis_tz	hip_flexion_r	hip_adduction_r	hip_rotation_r	knee_angle_r	knee_angle_r_beta	ankle_angle_r	subtalar_angle_r	mtp_angle_r	hip_flexion_l	hip_adduction_l	hip_rotation_l	knee_angle_l	knee_angle_l_beta	ankle_angle_l	subtalar_angle_l	mtp_angle_l	lumbar_extension	lumbar_bending	lumbar_rotation	arm_flex_r	arm_add_r	arm_rot_r	elbow_flex_r	pro_sup_r	arm_flex_l	arm_add_l	arm_rot_l	elbow_flex_l	pro_sup_l
0.000000	0.000000	0.000000	0.000000	0.000000	0.000000	0.000000	0.000000	0.000000	0.000000	0.000000	0.000000	0.000000	0.000000	0.000000	0.000000	0.000000	0.000000	0.000000	0.000000	0.000000	0.000000	0.000000	0.000000	0.000000	0.000000	0.000000	0.000000	0.000000	0.000000	0.000000	0.000000	0.000000	0.000000	0.000000	0.000000
0.006667	0.000000	0.000000	0.000000	0.000000	0.000000	0.000000	0.000000	0.000000	0.000000	0.209424	0.000000	0.418848	0.104712	0.209424	0.000000	0.000000	0.000000	0.209424	0.000000	0.418848	0.104712	0.209424	0.000000	0.000000	0.000000	0.000000	0.000000	0.000000	0.000000	0.000000	0.000000	0.000000	0.000000	0.000000	0.000000
0.013333	0.000000	0.000000	0.000000	0.000000	0.000000	0.000000	0.000000	0.000000	0.000000	0.418757	0.000000	0.837513	0.209378	0.418757	0.000000	0.000000	0.000000	0.418757	0.000000	0.837513	0.209378	0.418757	0.000000	0.000000	0.000000	0.000000	0.000000	0.000000	0.000000	0.000000	0.000000	0.000000	0.000000	0.000000	0.000000
0.020000	0.000000	0.000000	0.000000	0.000000	0.000000	0.000000	0.000000	0.000000	0.000000	0.627905	0.000000	1.255810	0.313953	0.627905	0.000000	0.000000	0.000000	0.627905	0.000000	1.255810	0.313953	0.627905	0.000000	0.000000	0.000000	0.000000	0.000000	0.000000	0.000000	0.000000	0.000000	0.000000	0.000000	0.000000	0.000000
0.026667	0.000000	0.000000	0.000000	0.000000	0.000000	0.000000	0.000000	0.000000	0.000000	0.836778	0.000000	1.673557	0.418389	0.836778	0.000000	0.000000	0.000000	0.836778	0.000000	1.673557	0.418389	0.836778	0.000000	0.000000	0.000000	0.000000	0.000000	0.000000	0.000000	0.000000	0.000000	0.000000	0.000000	0.000000	0.000000
0.033333	0.000000	0.000000	0.000000	0.000000	0.000000	0.000000	0.000000	0.000000	0.000000	1.045285	0.000000	2.090569	0.522642	1.045285	0.000000	0.000000	0.000000	1.045285	0.000000	2.090569	0.522642	1.045285	0.000000	0.000000	0.000000	0.000000	0.000000	0.000000	0.000000	0.000000	0.000000	0.000000	0.000000	0.000000	0.000000
0.040000	0.000000	0.000000	0.000000	0.000000	0.000000	0.000000	0.000000	0.000000	0.000000	1.253332	0.000000	2.506665	0.626666	1.253332	0.000000	0.000000	0.000000	1.253332	0.000000	2.506665	0.626666	1.253332	0.000000	0.000000	0.000000	0.000000	0.000000	0.000000	0.000000	0.000000	0.000000	0.000000	0.000000	0.000000	0.000000
0.046667	0.000000	0.000000	0.000000	0.000000	0.000000	0.000000	0.000000	0.000000	0.000000	1.460830	0.000000	2.921661	0.730415	1.460830	0.000000	0.000000	0.000000	1.460830	0.000000	2.921661	0.730415	1.460830	0.000000	0.000000	0.000000	0.000000	0.000000	0.000000	0.000000	0.000000	0.000000	0.000000	0.000000	0.000000	0.000000
0.053333	0.000000	0.000000	0.000000	0.000000	0.000000	0.000000	0.000000	0.000000	0.000000	1.667687	0.000000	3.335375	0.833844	1.667687	0.000000	0.000000	0.000000	1.667687	0.000000	3.335375	0.833844	1.667687	0.000000	0.000000	0.000000	0.000000	0.000000	0.000000	0.000000	0.000000	0.000000	0.000000	0.000000	0.000000	0.000000
0.060000	0.000000	0.000000	0.000000	0.000000	0.000000	0.000000	0.000000	0.000000	0.000000	1.873813	0.000000	3.747626	0.936907	1.873813	0.000000	0.000000	0.000000	1.873813	0.000000	3.747626	0.936907	1.873813	0.000000	0.000000	0.000000	0.000000	0.000000	0.000000	0.000000	0.000000	0.000000	0.000000	0.000000	0.000000	0.000000
0.066667	0.000000	0.000000	0.000000	0.000000	0.000000	0.000000	0.000000	0.000000	0.000000	2.079117	0.000000	4.158234	1.039558	2.079117	0.000000	0.000000	0.000000	2.079117	0.000000	4.158234	1.039558	2.079117	0.000000	0.000000	0.000000	0.000000	0.000000	0.000000	0.000000	0.000000	0.000000	0.000000	0.000000	0.000000	0.000000
0.073333	0.000000	0.000000	0.000000	0.000000	0.000000	0.000000	0.000000	0.000000	0.000000	2.283509	0.000000	4.567017	1.141754	2.283509	0.000000	0.000000	0.000000	2.283509	0.000000	4.567017	1.141754	2.283509	0.000000	0.000000	0.000000	0.000000	0.000000	0.000000	0.000000	0.000000	0.000000	0.000000	0.000000	0.000000	0.000000
0.080000	0.000000	0.000000	0.000000	0.000000	0.000000	0.000000	0.000000	0.000000	0.000000	2.486899	0.000000	4.973798	1.243449	2.486899	0.000000	0.000000	0.000000	2.486899	0.000000	4.973798	1.243449	2.486899	0.000000	0.000000	0.000000	0.000000	0.000000	0.000000	0.000000	0.000000	0.000000	0.000000	0.000000	0.000000	0.000000
0.086667	0.000000	0.000000	0.000000	0.000000	0.000000	0.000000	0.000000	0.000000	0.000000	2.689198	0.000000	5.378396	1.344599	2.689198	0.000000	0.000000	0.000000	2.689198	0.000000	5.378396	1.344599	2.689198	0.000000	0.000000	0.000000	0.000000	0.000000	0.000000	0.000000	0.000000	0.000000	0.000000	0.000000	0.000000	0.000000
0.093333	0.000000	0.000000	0.000000	0.000000	0.000000	0.000000	0.000000	0.000000	0.000000	2.890318	0.000000	5.780636	1.445159	2.890318	0.000000	0.000000	0.000000	2.890318	0.000000	5.780636	1.445159	2.890318	0.000000	0.000000	0.000000	0.000000	0.000000	0.000000	0.000000	0.000000	0.000000	0.000000	0.000000	0.000000	0.000000
0.100000	0.000000	0.000000	0.000000	0.000000	0.000000	0.000000	0.000000	0.000000	0.000000	3.090170	0.000000	6.180340	1.545085	3.090170	0.000000	0.000000	0.000000	3.090170	0.000000	6.180340	1.545085	3.090170	0.000000	0.000000	0.000000	0.000000	0.000000	0.000000	0.000000	0.000000	0.000000	0.000000	0.000000	0.000000	0.000000
0.106667	0.000000	0.000000	0.000000	0.000000	0.000000	0.000000	0.000000	0.000000	0.000000	3.288666	0.000000	6.577333	1.644333	3.288666	0.000000	0.000000	0.000000	3.288666	0.000000	6.577333	1.644333	3.288666	0.000000	0.000000	0.000000	0.000000	0.000000	0.000000	0.000000	0.000000	0.000000	0.000000	0.000000	0.000000	0.000000
0.113333	0.000000	0.000000	0.000000	0.000000	0.000000	0.000000	0.000000	0.000000	0.000000	3.485720	0.000000	6.971441	1.742860	3.485720	0.000000	0.000000	0.000000	3.485720	0.000000	6.971441	1.742860	3.485720	0.000000	0.000000	0.000000	0.000000	0.000000	0.000000	0.000000	0.000000	0.000000	0.000000	0.000000	0.000000	0.000000
0.120000	0.000000	0.000000	0.000000	0.000000	0.000000	0.000000	0.000000	0.000000	0.000000	3.681246	0.000000	7.362491	1.840623	3.681246	0.000000	0.000000	0.000000	3.681246	0.000000	7.362491	1.840623	3.681246	0.000000	0.000000	0.000000	0.000000	0.000000	0.000000	0.000000	0.000000	0.000000	0.000000	0.000000	0.000000	0.000000
0.126667	0.000000	0.000000	0.000000	0.000000	0.000000	0.000000	0.000000	0.000000	0.000000	3.875156	0.000000	7.750312	1.937578	3.875156	0.000000	0.000000	0.000000	3.875156	0.000000	7.750312	1.937578	3.875156	0.000000	0.000000	0.000000	0.000000	0.000000	0.000000	0.000000	0.000000	0.000000	0.000000	0.000000	0.000000	0.000000
0.133333	0.000000	0.000000	0.000000	0.000000	0.000000	0.000000	0.000000	0.000000	0.000000	4.067366	0.000000	8.134733	2.033683	4.067366	0.000000	0.000000	0.000000	4.067366	0.000000	8.134733	2.033683	4.067366	0.000000	0.000000	0.000000	0.000000	0.000000	0.000000	0.000000	0.000000	0.000000	0.000000	0.000000	0.000000	0.000000
